<?xml version="1.0" encoding="UTF-8"?>
<svg id="Camada_2" data-name="Camada 2" xmlns="http://www.w3.org/2000/svg" viewBox="0 0 171.7 209.48">
  <g id="Camada_1-2" data-name="Camada 1">
    <path d="M148.75,72.11c5.87-13.16,5.93-28.17.16-41.18C141.77,14.82,124.1,3.57,101.66.84c-15.06-1.83-30.69-.66-45.18,3.38-15.63,4.36-29.09,11.93-38.91,21.9-7.79,7.9-12.44,16.89-13.81,26.7-.99,7.06.1,13.18,3.23,18.21,3.94,6.32,10.91,9.4,17.78,7.86,4.82-1.09,7.07-3.77,7.99-5.27.56-.92.83-1.73.94-2.3-.21.02-.42.04-.61.06-3.19.31-9.12.89-13.83-5.71-4.03-5.64-4.98-12.85-2.75-20.85,1.82-6.52,5.72-13.24,10.72-18.44C46.73,6.09,82.82-1.15,109.36,9.92c17.55,7.32,28.12,23.26,28.28,42.64.1,11.9-3.4,22.76-10.1,31.4-6.34,8.17-19.66,15.61-30.53,18.89l-1.16,4.92c18.22-3.46,43.87-15.44,52.9-35.67Z" fill="#305736"/>
    <path d="M86.19,24.23c.13-.11.26-.23.4-.34-8.09-1.03-17.72,8.13-22.48,14.94-12.25,17.55-18.51,41.85-23.01,63.3-1.81,8.65-3.91,16.53-6.07,24.51-6.94,25.6-14.25,32.34-17.99,34.08-2.37,1.1-4.85,1.11-7.19.03-6.77-3.15-5.41-13.57-2.84-19.81,4.03-9.81,12.42-22.23,22.04-27.32h0c-13.03,5.9-23.19,16.57-27.62,29.25-2.56,7.32-1.99,17.22,4.03,21.99,8.93,7.07,21.68,1.19,29.15-7.93,9.26-11.32,14.35-27.86,18.46-44.05l.4-1.56,19.31-2.29,1.03-4.79-19.33,1.64,6.31-26.44,4.25-15.3c3.03-10.9,6.52-19.76,10.98-27.88,3.4-6.19,7.63-9.84,10.16-12.02Z" fill="#305736"/>
    <path d="M76.06,185.61l25.52,12.54c15.37,7.55,33.25,15.12,50.9,9.23,7.59-2.53,13.76-8.07,16.92-15.18,3.06-6.88,3.07-14.48.03-21.41-2.33-5.32-6.77-9.28-12.19-10.86-5.19-1.51-10.53-.68-15.04,2.35-4.53,3.04-5.05,6.74-5.1,7.81-.05.99.15,1.6.3,1.91.36-.3.88-.86,1.28-1.3,2.1-2.28,5.61-6.08,12.65-6.08.05,0,.1,0,.15,0,5.93.04,11.29,2.87,13.99,7.39,2.78,4.65,2.83,10.52.14,15.71-2.79,5.39-8.56,8.71-16.69,9.6-8.02.88-15.96-.77-19-1.53-9.16-2.27-17.44-5.53-26.2-8.97l-17.43-6.84c-6.15-2.41-12.48-3.74-17.31-4.63-12.63-2.33-24.53-.71-34.41,4.68-5.93,3.23-9.95,8.4-11.04,14.16-.6,3.17.03,6.09,1.81,8.44,1.97,2.59,5.23,4.26,8.96,4.59,10.36.9,21.17-5.26,29.36-16.59-3.06-1-6.15-1.53-9.33-1.6-1.42,2.54-4.11,6.78-7.73,10.04-5.91,5.33-10.91,5.02-14.06,3.81-3.94-1.5-5.87-6.07-4.3-10.17,1.89-4.96,6.2-8.69,12.47-10.79,3.59-1.2,7.75-1.84,11.86-1.84,1.38,0,2.75.07,4.09.22,7.27.78,13.79,2.58,19.39,5.33Z" fill="#305736"/>
    <path d="M123.53,59.7c-.58-3.82-3.35-6.77-7.06-7.52-17.13-3.45-29.52,20-34.15,34.4-4.68,14.58-7.54,28.42-10.3,41.81-2.46,11.93-5,24.24-8.84,37.3,4.48.47,8.31,1.06,12.18,1.87,4.07-11.01,7.44-23,10.84-38.53l7.62-34.81c1.49-6.82,7.07-29.54,16.26-35.75,1.85-1.25,5.13-1.33,6.88-.18,1.65,1.08,2.79,3.7,2.83,5.45.18,9.3-5,17.9-10.67,23.76,9.32-6.19,16.16-16.27,14.42-27.79Z" fill="#305736"/>
  </g>
</svg>